<svg width="114" height="114" viewBox="0 0 114 114" fill="none" xmlns="http://www.w3.org/2000/svg">
<path d="M47.9989 6.91726C49.9055 -0.18675 59.9523 -0.186755 61.8589 6.91725L69.8401 36.6554C70.5051 39.1332 72.4343 41.0686 74.9042 41.7358L104.547 49.7427C111.628 51.6555 111.628 61.7346 104.547 63.6473L74.9042 71.6543C72.4343 72.3214 70.5051 74.2569 69.8401 76.7347L61.8589 106.473C59.9523 113.577 49.9055 113.577 47.9989 106.473L40.0177 76.7347C39.3526 74.2569 37.4234 72.3214 34.9535 71.6543L5.3109 63.6473C-1.7703 61.7346 -1.7703 51.6555 5.3109 49.7427L34.9535 41.7358C37.4234 41.0686 39.3526 39.1332 40.0177 36.6554L47.9989 6.91726Z" fill="white"/>
</svg>
